<svg width="16" height="20" viewBox="0 0 16 20" fill="none" xmlns="http://www.w3.org/2000/svg">
<path d="M9 1C9 0.447715 8.55229 0 8 0C7.44772 0 7 0.447715 7 1H9ZM8 13.9231L7.33564 14.6705L8 15.261L8.66436 14.6705L8 13.9231ZM3.81821 8.86797C3.40543 8.50106 2.77335 8.53824 2.40644 8.95102C2.03952 9.3638 2.0767 9.99588 2.48948 10.3628L3.81821 8.86797ZM13.5105 10.3628C13.9233 9.99588 13.9605 9.3638 13.5936 8.95102C13.2266 8.53824 12.5946 8.50106 12.1818 8.86797L13.5105 10.3628ZM0 13.9231V17.1538H2V13.9231H0ZM2.07692 19.2308H13.9231V17.2308H2.07692V19.2308ZM16 17.1538V13.9231H14V17.1538H16ZM13.9231 19.2308C15.0701 19.2308 16 18.3009 16 17.1538H14C14 17.1963 13.9656 17.2308 13.9231 17.2308V19.2308ZM0 17.1538C0 18.3009 0.92987 19.2308 2.07692 19.2308V17.2308C2.03444 17.2308 2 17.1963 2 17.1538H0ZM7 1V13.9231H9V1H7ZM2.48948 10.3628L7.33564 14.6705L8.66436 13.1757L3.81821 8.86797L2.48948 10.3628ZM8.66436 14.6705L13.5105 10.3628L12.1818 8.86797L7.33564 13.1757L8.66436 14.6705Z" fill="#808080"/>
</svg>
