<svg width="15" height="18" viewBox="0 0 15 18" fill="none" xmlns="http://www.w3.org/2000/svg">
<path d="M9.72704 4.03307C9.72704 4.03307 9.43042 3.95354 9.28029 3.91331C5.57922 2.92162 1.77498 5.11799 0.783287 8.81906C-0.208411 12.5201 1.98797 16.3244 5.68903 17.3161C9.3901 18.3078 13.1943 16.1114 14.186 12.4103C14.309 11.9513 14.4198 11.5379 14.5452 11.07L12.7581 10.5912C12.6384 11.038 12.5235 11.4668 12.399 11.9315C11.6718 14.6456 8.88199 16.2563 6.16787 15.529C3.45375 14.8018 1.84308 12.012 2.57032 9.2979C3.29757 6.58378 6.08734 4.9731 8.80146 5.70035C8.95205 5.7407 9.24822 5.82006 9.24822 5.82006L9.72704 4.03307Z" fill="#808080"/>
<path d="M7.07858 1.40803L8.77798 0.42688L10.2497 2.97598L11.7214 5.52508L10.022 6.50623L7.07858 1.40803Z" fill="#808080"/>
<path d="M10.7403 3.82568L11.7214 5.52508L6.62322 8.46853L5.64207 6.76913L10.7403 3.82568Z" fill="#808080"/>
</svg>
