<svg width="296" height="56" viewBox="0 0 296 56" fill="none" xmlns="http://www.w3.org/2000/svg">
<line x1="88.134" y1="45.8013" x2="113.134" y2="2.5" stroke="#8D8D8D" stroke-width="2"/>
<path d="M114 53L121 46L124 49L117 56L114 53Z" fill="#E19500"/>
<path d="M125 56L118.03 49L121 46L128 53L125 56Z" fill="#E19500"/>
<path d="M122 53L129 46L132 49L125 56L122 53Z" fill="#E19500"/>
<path d="M133 56L126.03 49L129 46L136 53L133 56Z" fill="#E19500"/>
<path d="M130 53L137 46L140 49L133 56L130 53Z" fill="#E19500"/>
<path d="M141 56L134.03 49L137 46L144 53L141 56Z" fill="#E19500"/>
<path d="M138 53L145 46L148 49L141 56L138 53Z" fill="#E19500"/>
<path d="M149 56L142.03 49L145 46L152 53L149 56Z" fill="#E19500"/>
<path d="M146 53L153 46L156 49L149 56L146 53Z" fill="#E19500"/>
<path d="M157 56L150.03 49L153 46L160 53L157 56Z" fill="#E19500"/>
<path d="M154 53L161 46L164 49L157 56L154 53Z" fill="#E19500"/>
<path d="M165 56L158.03 49L161 46L168 53L165 56Z" fill="#E19500"/>
<path d="M162 53L169 46L172 49L165 56L162 53Z" fill="#E19500"/>
<path d="M173 56L166.03 49L169 46L176 53L173 56Z" fill="#E19500"/>
<path d="M170 53L177 46L180 49L173 56L170 53Z" fill="#E19500"/>
<path d="M181 56L174.03 49L177 46L184 53L181 56Z" fill="#E19500"/>
<path d="M178 53L185 46L188 49L181 56L178 53Z" fill="#E19500"/>
<path d="M189 56L182.03 49L185 46L192 53L189 56Z" fill="#E19500"/>
<path d="M186 53L193 46L196 49L189 56L186 53Z" fill="#E19500"/>
<path d="M197 56L190.03 49L193 46L200 53L197 56Z" fill="#E19500"/>
<path d="M194 53L201 46L204 49L197 56L194 53Z" fill="#E19500"/>
<path d="M205 56L198.03 49L201 46L208 53L205 56Z" fill="#E19500"/>
<path d="M202 53L209 46L212 49L205 56L202 53Z" fill="#E19500"/>
<path d="M213 56L206.03 49L209 46L216 53L213 56Z" fill="#E19500"/>
<path d="M210 53L217 46L220 49L213 56L210 53Z" fill="#E19500"/>
<path d="M221 56L214.03 49L217 46L224 53L221 56Z" fill="#E19500"/>
<path d="M218 53L225 46L228 49L221 56L218 53Z" fill="#E19500"/>
<path d="M229 56L222.03 49L225 46L232 53L229 56Z" fill="#E19500"/>
<path d="M226 53L233 46L236 49L229 56L226 53Z" fill="#E19500"/>
<path d="M237 56L230.03 49L233 46L240 53L237 56Z" fill="#E19500"/>
<path d="M234 53L241 46L244 49L237 56L234 53Z" fill="#E19500"/>
<path d="M245 56L238.03 49L241 46L248 53L245 56Z" fill="#E19500"/>
<path d="M242 53L249 46L252 49L245 56L242 53Z" fill="#E19500"/>
<path d="M253 56L246.03 49L249 46L256 53L253 56Z" fill="#E19500"/>
<path d="M250 53L257 46L260 49L253 56L250 53Z" fill="#E19500"/>
<path d="M261 56L254.03 49L257 46L264 53L261 56Z" fill="#E19500"/>
<path d="M258 53L265 46L268 49L261 56L258 53Z" fill="#E19500"/>
<path d="M269 56L262.03 49L265 46L272 53L269 56Z" fill="#E19500"/>
<path d="M266 53L273 46L276 49L269 56L266 53Z" fill="#E19500"/>
<path d="M277 56L270.03 49L273 46L280 53L277 56Z" fill="#E19500"/>
<path d="M274 53L281 46L284 49L277 56L274 53Z" fill="#E19500"/>
<path d="M285 56L278.03 49L281 46L288 53L285 56Z" fill="#E19500"/>
<path d="M282 53L289 46L292 49L285 56L282 53Z" fill="#E19500"/>
<path d="M293 56L286.03 49L289 46L296 53L293 56Z" fill="#E19500"/>
<path d="M134.112 15.344C133.963 16.8587 133.888 18.224 133.888 19.44C133.888 20.5067 133.92 21.3814 133.984 22.064H133.248C133.078 20.4214 132.864 19.2054 132.608 18.416C132.352 17.6054 131.904 17.0187 131.264 16.656C130.624 16.272 129.643 16.08 128.32 16.08H126.304C125.536 16.08 124.971 16.144 124.608 16.272C124.267 16.3787 124.032 16.6134 123.904 16.976C123.776 17.3387 123.712 17.9254 123.712 18.736V26.608H126.048C126.795 26.608 127.371 26.4374 127.776 26.096C128.182 25.7334 128.448 25.3174 128.576 24.848C128.726 24.3574 128.843 23.7494 128.928 23.024L129.024 22.384H129.76C129.696 23.28 129.664 24.2827 129.664 25.392V26.928C129.664 28.016 129.728 29.5307 129.856 31.472H129.12C129.099 31.3227 129.035 30.8107 128.928 29.936C128.822 29.04 128.523 28.368 128.032 27.92C127.563 27.472 126.902 27.248 126.048 27.248H123.712V34.608C123.712 35.4187 123.798 36.0054 123.968 36.368C124.139 36.7307 124.438 36.976 124.864 37.104C125.291 37.232 125.984 37.3174 126.944 37.36V38C125.835 37.936 124.267 37.904 122.24 37.904C120.406 37.904 119.04 37.936 118.144 38V37.36C118.912 37.3174 119.467 37.232 119.808 37.104C120.171 36.976 120.416 36.7307 120.544 36.368C120.672 36.0054 120.736 35.4187 120.736 34.608V18.736C120.736 17.9254 120.672 17.3387 120.544 16.976C120.416 16.6134 120.171 16.368 119.808 16.24C119.467 16.112 118.912 16.0267 118.144 15.984V15.344C120.235 15.408 123.328 15.44 127.424 15.44C130.56 15.44 132.79 15.408 134.112 15.344ZM149.099 21.072C149.952 21.072 150.646 21.3174 151.179 21.808C151.734 22.2987 152.011 22.896 152.011 23.6C152.011 24.1547 151.84 24.6347 151.499 25.04C151.179 25.424 150.742 25.616 150.187 25.616C149.718 25.616 149.312 25.4667 148.971 25.168C148.651 24.8694 148.491 24.464 148.491 23.952C148.491 23.248 148.854 22.672 149.579 22.224C149.43 22.0107 149.206 21.904 148.907 21.904C148.075 21.904 147.318 22.2347 146.635 22.896C145.952 23.536 145.419 24.3254 145.035 25.264C144.651 26.2027 144.459 27.088 144.459 27.92V34.704C144.459 35.6854 144.736 36.368 145.291 36.752C145.867 37.136 146.72 37.328 147.851 37.328V38L147.083 37.968C144.907 37.904 143.52 37.872 142.923 37.872C142.368 37.872 141.11 37.9147 139.147 38V37.328C140.043 37.328 140.672 37.168 141.035 36.848C141.398 36.5067 141.579 35.8987 141.579 35.024V25.008C141.579 24.0267 141.398 23.312 141.035 22.864C140.672 22.416 140.043 22.192 139.147 22.192V21.52C139.83 21.584 140.491 21.616 141.131 21.616C142.475 21.616 143.584 21.4667 144.459 21.168V25.168C144.843 24.1014 145.451 23.152 146.283 22.32C147.136 21.488 148.075 21.072 149.099 21.072ZM169.86 34.16C169.476 35.3334 168.751 36.3467 167.684 37.2C166.639 38.032 165.369 38.448 163.876 38.448C162.361 38.448 161.049 38.1067 159.94 37.424C158.831 36.72 157.977 35.7494 157.38 34.512C156.804 33.2534 156.516 31.8027 156.516 30.16C156.516 28.304 156.815 26.6934 157.412 25.328C158.009 23.9627 158.852 22.9174 159.94 22.192C161.028 21.4454 162.297 21.072 163.748 21.072C165.668 21.072 167.14 21.6587 168.164 22.832C169.209 23.984 169.732 25.744 169.732 28.112H159.716C159.652 28.7094 159.62 29.392 159.62 30.16C159.62 31.568 159.844 32.7947 160.292 33.84C160.761 34.8854 161.369 35.696 162.116 36.272C162.884 36.8267 163.684 37.104 164.516 37.104C165.54 37.104 166.447 36.8587 167.236 36.368C168.025 35.8774 168.687 35.056 169.22 33.904L169.86 34.16ZM163.62 21.68C162.617 21.68 161.753 22.1707 161.028 23.152C160.303 24.1334 159.855 25.584 159.684 27.504H166.66C166.703 25.84 166.457 24.4534 165.924 23.344C165.412 22.2347 164.644 21.68 163.62 21.68ZM189.887 41.136C189.887 41.8827 190.037 42.3947 190.335 42.672C190.655 42.9707 191.21 43.12 191.999 43.12V43.792C190.207 43.7067 189.055 43.664 188.543 43.664C187.946 43.664 186.655 43.696 184.671 43.76L183.935 43.792V43.12C184.959 43.12 185.727 42.9494 186.239 42.608C186.751 42.288 187.007 41.6907 187.007 40.816V35.312C186.581 36.3147 185.973 37.0934 185.183 37.648C184.415 38.1814 183.53 38.448 182.527 38.448C181.269 38.448 180.138 38.128 179.135 37.488C178.154 36.848 177.375 35.8774 176.799 34.576C176.223 33.2747 175.935 31.6747 175.935 29.776C175.935 27.8987 176.234 26.3094 176.831 25.008C177.429 23.6854 178.239 22.704 179.263 22.064C180.309 21.4027 181.482 21.072 182.783 21.072C183.871 21.072 184.778 21.264 185.503 21.648C186.229 22.0107 186.826 22.5974 187.295 23.408L189.567 21.008L190.111 21.232C189.962 21.7654 189.887 22.384 189.887 23.088V41.136ZM183.455 37.488C184.245 37.488 184.959 37.168 185.599 36.528C186.261 35.888 186.73 34.9814 187.007 33.808V23.92C186.602 23.216 186.058 22.6934 185.375 22.352C184.693 21.9894 183.914 21.808 183.039 21.808C181.759 21.808 180.767 22.4694 180.063 23.792C179.381 25.1147 179.039 27.1094 179.039 29.776C179.039 32.336 179.413 34.2667 180.159 35.568C180.927 36.848 182.026 37.488 183.455 37.488ZM211.119 34.544C211.119 35.5254 211.3 36.24 211.663 36.688C212.025 37.136 212.655 37.36 213.551 37.36V38.032C212.889 37.968 212.228 37.936 211.567 37.936C210.223 37.936 209.113 38.0854 208.239 38.384V34.608C207.727 35.9307 207.001 36.9014 206.063 37.52C205.124 38.1387 204.1 38.448 202.991 38.448C201.54 38.448 200.431 38.0427 199.663 37.232C199.279 36.8054 199.001 36.2614 198.831 35.6C198.681 34.9387 198.607 34.0854 198.607 33.04V25.008C198.607 24.0267 198.425 23.312 198.063 22.864C197.7 22.416 197.071 22.192 196.175 22.192V21.52C196.836 21.584 197.497 21.616 198.159 21.616C199.503 21.616 200.612 21.4667 201.487 21.168V33.744C201.487 34.5547 201.529 35.216 201.615 35.728C201.721 36.2187 201.945 36.624 202.287 36.944C202.649 37.264 203.193 37.424 203.919 37.424C204.729 37.424 205.465 37.168 206.127 36.656C206.788 36.144 207.3 35.4507 207.663 34.576C208.047 33.68 208.239 32.6987 208.239 31.632V25.008C208.239 24.0267 208.057 23.312 207.695 22.864C207.332 22.416 206.703 22.192 205.807 22.192V21.52C206.468 21.584 207.129 21.616 207.791 21.616C209.135 21.616 210.244 21.4667 211.119 21.168V34.544ZM232.272 34.16C231.888 35.3334 231.163 36.3467 230.096 37.2C229.051 38.032 227.782 38.448 226.288 38.448C224.774 38.448 223.462 38.1067 222.352 37.424C221.243 36.72 220.39 35.7494 219.792 34.512C219.216 33.2534 218.928 31.8027 218.928 30.16C218.928 28.304 219.227 26.6934 219.824 25.328C220.422 23.9627 221.264 22.9174 222.352 22.192C223.44 21.4454 224.71 21.072 226.16 21.072C228.08 21.072 229.552 21.6587 230.576 22.832C231.622 23.984 232.144 25.744 232.144 28.112H222.128C222.064 28.7094 222.032 29.392 222.032 30.16C222.032 31.568 222.256 32.7947 222.704 33.84C223.174 34.8854 223.782 35.696 224.528 36.272C225.296 36.8267 226.096 37.104 226.928 37.104C227.952 37.104 228.859 36.8587 229.648 36.368C230.438 35.8774 231.099 35.056 231.632 33.904L232.272 34.16ZM226.032 21.68C225.03 21.68 224.166 22.1707 223.44 23.152C222.715 24.1334 222.267 25.584 222.096 27.504H229.072C229.115 25.84 228.87 24.4534 228.336 23.344C227.824 22.2347 227.056 21.68 226.032 21.68ZM248.524 21.072C250.017 21.072 251.148 21.4774 251.916 22.288C252.321 22.7147 252.609 23.248 252.78 23.888C252.951 24.528 253.036 25.392 253.036 26.48V35.024C253.036 35.8987 253.217 36.5067 253.58 36.848C253.943 37.168 254.572 37.328 255.468 37.328V38C253.505 37.9147 252.225 37.872 251.628 37.872C251.031 37.872 249.836 37.9147 248.044 38V37.328C248.833 37.328 249.377 37.168 249.676 36.848C249.996 36.5067 250.156 35.8987 250.156 35.024V25.776C250.156 24.5814 249.985 23.6747 249.644 23.056C249.303 22.416 248.609 22.096 247.564 22.096C246.689 22.096 245.911 22.352 245.228 22.864C244.545 23.376 244.012 24.08 243.628 24.976C243.265 25.8507 243.084 26.832 243.084 27.92V35.024C243.084 35.8987 243.233 36.5067 243.532 36.848C243.852 37.168 244.407 37.328 245.196 37.328V38C243.404 37.9147 242.209 37.872 241.612 37.872C241.015 37.872 239.735 37.9147 237.772 38V37.328C238.668 37.328 239.297 37.168 239.66 36.848C240.023 36.5067 240.204 35.8987 240.204 35.024V25.008C240.204 24.0267 240.023 23.312 239.66 22.864C239.297 22.416 238.668 22.192 237.772 22.192V21.52C238.455 21.584 239.116 21.616 239.756 21.616C241.1 21.616 242.209 21.4667 243.084 21.168V24.944C243.617 23.5787 244.353 22.5974 245.292 22C246.252 21.3814 247.329 21.072 248.524 21.072ZM268.066 21.072C269.495 21.072 270.732 21.4134 271.778 22.096C272.78 22.7574 273.282 23.5787 273.282 24.56C273.282 25.1147 273.122 25.552 272.802 25.872C272.482 26.192 272.076 26.352 271.586 26.352C271.095 26.352 270.679 26.2134 270.338 25.936C269.996 25.6374 269.826 25.2427 269.826 24.752C269.826 24.304 269.954 23.9307 270.21 23.632C270.466 23.312 270.786 23.0987 271.17 22.992C270.956 22.608 270.572 22.288 270.018 22.032C269.484 21.776 268.908 21.648 268.29 21.648C267.5 21.648 266.764 21.904 266.082 22.416C265.399 22.9067 264.834 23.7387 264.386 24.912C263.938 26.064 263.714 27.5894 263.714 29.488C263.714 32.1334 264.14 34.064 264.994 35.28C265.847 36.4747 266.956 37.072 268.322 37.072C269.239 37.072 270.103 36.8054 270.914 36.272C271.746 35.7387 272.428 34.9067 272.962 33.776L273.57 34C273.207 35.216 272.524 36.2614 271.522 37.136C270.54 38.0107 269.26 38.448 267.682 38.448C266.359 38.448 265.154 38.1067 264.066 37.424C262.999 36.7414 262.156 35.76 261.538 34.48C260.919 33.1787 260.61 31.6747 260.61 29.968C260.61 28.24 260.919 26.704 261.538 25.36C262.178 24.016 263.063 22.9707 264.194 22.224C265.324 21.456 266.615 21.072 268.066 21.072ZM291.276 21.616C292.215 21.616 293.026 21.584 293.708 21.52V22.16C293.282 22.2027 292.898 22.3947 292.556 22.736C292.236 23.0774 291.927 23.632 291.628 24.4L286.38 38.16L285.292 40.944C284.887 41.9894 284.428 42.736 283.916 43.184C283.596 43.4827 283.212 43.696 282.764 43.824C282.316 43.952 281.868 44.016 281.42 44.016C280.78 44.016 280.258 43.8454 279.852 43.504C279.447 43.1627 279.244 42.6934 279.244 42.096C279.244 41.584 279.394 41.168 279.692 40.848C279.991 40.5494 280.407 40.4 280.94 40.4C281.41 40.4 281.794 40.528 282.092 40.784C282.412 41.0614 282.572 41.4347 282.572 41.904C282.572 42.544 282.284 43.024 281.708 43.344C281.751 43.3654 281.815 43.376 281.9 43.376C283.074 43.376 283.98 42.544 284.62 40.88L285.74 37.968L279.948 23.984C279.586 23.2587 279.223 22.7787 278.86 22.544C278.498 22.3094 278.135 22.192 277.772 22.192V21.52C278.69 21.648 279.735 21.712 280.908 21.712C281.975 21.712 283.362 21.648 285.068 21.52V22.192C284.3 22.192 283.735 22.256 283.372 22.384C283.031 22.512 282.86 22.8214 282.86 23.312C282.86 23.76 282.988 24.2827 283.244 24.88L287.084 34.416L290.636 25.168C290.871 24.528 290.988 24.0374 290.988 23.696C290.988 23.2054 290.796 22.8427 290.412 22.608C290.028 22.3734 289.42 22.224 288.588 22.16V21.52C289.719 21.584 290.615 21.616 291.276 21.616Z" fill="black"/>
<path d="M11.192 14.992C12.1307 14.992 12.8667 15.0987 13.4 15.312C13.9547 15.504 14.52 15.792 15.096 16.176C15.5653 16.4747 15.928 16.624 16.184 16.624C16.376 16.624 16.5253 16.5173 16.632 16.304C16.7387 16.0693 16.824 15.7067 16.888 15.216H17.624C17.5173 16.4533 17.464 18.6293 17.464 21.744H16.728C16.6 20.016 16.0987 18.5653 15.224 17.392C14.3707 16.1973 13.1227 15.6 11.48 15.6C10.328 15.6 9.38933 15.952 8.664 16.656C7.93867 17.3387 7.576 18.224 7.576 19.312C7.576 20.1227 7.75733 20.8267 8.12 21.424C8.504 22.0213 8.984 22.5333 9.56 22.96C10.136 23.3867 10.9573 23.9307 12.024 24.592L12.952 25.168C14.296 26 15.352 26.736 16.12 27.376C16.9093 27.9947 17.5387 28.7093 18.008 29.52C18.4773 30.3307 18.712 31.28 18.712 32.368C18.712 34.3093 18.072 35.8133 16.792 36.88C15.512 37.9253 13.8907 38.448 11.928 38.448C10.904 38.448 10.0613 38.3413 9.4 38.128C8.76 37.9147 8.14133 37.6267 7.544 37.264C7.07467 36.9653 6.712 36.816 6.456 36.816C6.264 36.816 6.11467 36.9333 6.008 37.168C5.90133 37.3813 5.816 37.7333 5.752 38.224H5.016C5.10133 37.0507 5.144 34.4907 5.144 30.544H5.88C6.02933 32.6987 6.56267 34.448 7.48 35.792C8.39733 37.136 9.80533 37.808 11.704 37.808C12.856 37.808 13.8373 37.456 14.648 36.752C15.4587 36.0267 15.864 34.96 15.864 33.552C15.864 32.3573 15.4587 31.344 14.648 30.512C13.8587 29.68 12.6 28.7413 10.872 27.696C9.61333 26.928 8.58933 26.2453 7.8 25.648C7.032 25.0507 6.40267 24.336 5.912 23.504C5.42133 22.6507 5.176 21.6587 5.176 20.528C5.176 18.736 5.752 17.3707 6.904 16.432C8.056 15.472 9.48533 14.992 11.192 14.992ZM34.6173 21.072C35.7479 21.072 36.7613 21.3813 37.6573 22C38.5746 22.6187 39.2893 23.5253 39.8013 24.72C40.3133 25.9147 40.5693 27.344 40.5693 29.008C40.5693 30.6507 40.3026 32.1867 39.7693 33.616C39.2573 35.0453 38.4466 36.208 37.3373 37.104C36.2493 38 34.8839 38.448 33.2413 38.448C32.4306 38.448 31.6946 38.288 31.0333 37.968C30.3719 37.648 29.8599 37.232 29.4973 36.72V40.816C29.4973 41.6907 29.7533 42.288 30.2653 42.608C30.7773 42.9493 31.5453 43.12 32.5693 43.12V43.792L31.8333 43.76C29.8493 43.696 28.5586 43.664 27.9613 43.664C27.4493 43.664 26.2973 43.7067 24.5053 43.792V43.12C25.2946 43.12 25.8386 42.9707 26.1373 42.672C26.4573 42.3947 26.6173 41.8827 26.6173 41.136V25.008C26.6173 24.0267 26.4359 23.312 26.0733 22.864C25.7106 22.416 25.0813 22.192 24.1853 22.192V21.52C24.8466 21.584 25.5079 21.616 26.1693 21.616C27.5133 21.616 28.6226 21.4667 29.4973 21.168V24.56C29.9666 23.4507 30.6493 22.5973 31.5453 22C32.4413 21.3813 33.4653 21.072 34.6173 21.072ZM32.8893 37.712C35.9399 37.712 37.4653 34.96 37.4653 29.456C37.4653 24.5067 36.2279 22.032 33.7533 22.032C32.7933 22.032 31.9293 22.384 31.1613 23.088C30.3933 23.7707 29.8386 24.7627 29.4973 26.064V35.664C29.7959 36.2827 30.2333 36.784 30.8093 37.168C31.3853 37.5307 32.0786 37.712 32.8893 37.712ZM51.291 35.024C51.291 35.8987 51.4723 36.5067 51.835 36.848C52.1977 37.168 52.827 37.328 53.723 37.328V38C51.7603 37.9147 50.4697 37.872 49.851 37.872C49.2323 37.872 47.9417 37.9147 45.979 38V37.328C46.875 37.328 47.5043 37.168 47.867 36.848C48.2297 36.5067 48.411 35.8987 48.411 35.024V16.752C48.411 15.7707 48.2297 15.056 47.867 14.608C47.5043 14.16 46.875 13.936 45.979 13.936V13.264C46.6403 13.328 47.3017 13.36 47.963 13.36C49.307 13.36 50.4163 13.2107 51.291 12.912V35.024ZM62.2072 13.52C62.7619 13.52 63.2419 13.7227 63.6472 14.128C64.0526 14.5333 64.2552 15.0133 64.2552 15.568C64.2552 16.1227 64.0526 16.6027 63.6472 17.008C63.2419 17.4133 62.7619 17.616 62.2072 17.616C61.6526 17.616 61.1726 17.4133 60.7672 17.008C60.3619 16.6027 60.1592 16.1227 60.1592 15.568C60.1592 15.0133 60.3619 14.5333 60.7672 14.128C61.1726 13.7227 61.6526 13.52 62.2072 13.52ZM63.8712 35.024C63.8712 35.8987 64.0526 36.5067 64.4152 36.848C64.7779 37.168 65.4072 37.328 66.3032 37.328V38C64.3406 37.9147 63.0499 37.872 62.4312 37.872C61.8126 37.872 60.5219 37.9147 58.5592 38V37.328C59.4552 37.328 60.0846 37.168 60.4472 36.848C60.8099 36.5067 60.9912 35.8987 60.9912 35.024V25.008C60.9912 24.0267 60.8099 23.312 60.4472 22.864C60.0846 22.416 59.4552 22.192 58.5592 22.192V21.52C59.2419 21.584 59.9032 21.616 60.5432 21.616C61.8872 21.616 62.9966 21.4667 63.8712 21.168V35.024ZM76.2863 21.552H81.0223V22.192H76.2863V34.576C76.2863 35.536 76.4569 36.2293 76.7983 36.656C77.1609 37.0827 77.6729 37.296 78.3343 37.296C78.9956 37.296 79.5609 37.0293 80.0303 36.496C80.4996 35.9627 80.8943 35.088 81.2143 33.872L81.8543 34.032C81.3209 36.976 79.9343 38.448 77.6943 38.448C76.9689 38.448 76.3716 38.3627 75.9023 38.192C75.4329 38.0213 75.0169 37.7547 74.6543 37.392C74.1849 36.9227 73.8543 36.3467 73.6623 35.664C73.4916 34.9813 73.4063 34.064 73.4063 32.912V22.192H70.3343V21.552H73.4063V16.656C74.6009 16.6133 75.5609 16.464 76.2863 16.208V21.552Z" fill="black"/>
<path d="M0 7L7 0L9.99999 2.99999L3 10L0 7Z" fill="#E19500"/>
<path d="M11 10L4.03021 2.99999L7 0L14 7L11 10Z" fill="#E19500"/>
<path d="M8 7L14.9999 0L17.9999 2.99999L10.9999 10L8 7Z" fill="#E19500"/>
<path d="M18.9999 10L12.0301 2.99999L14.9999 0L21.9999 7L18.9999 10Z" fill="#E19500"/>
<path d="M16 7L22.9999 0L25.9999 2.99999L18.9999 10L16 7Z" fill="#E19500"/>
<path d="M26.9999 10L20.0301 2.99999L22.9999 0L29.9999 7L26.9999 10Z" fill="#E19500"/>
<path d="M24 7L30.9999 0L33.9999 2.99999L26.9999 10L24 7Z" fill="#E19500"/>
<path d="M34.9999 10L28.0301 2.99999L30.9999 0L37.9999 7L34.9999 10Z" fill="#E19500"/>
<path d="M32 7L38.9999 0L41.9999 2.99999L34.9999 10L32 7Z" fill="#E19500"/>
<path d="M42.9999 10L36.0301 2.99999L38.9999 0L45.9999 7L42.9999 10Z" fill="#E19500"/>
<path d="M40 7L47 0L50 2.99999L43 10L40 7Z" fill="#E19500"/>
<path d="M51 10L44.0302 2.99999L47 0L54 7L51 10Z" fill="#E19500"/>
<path d="M48 7L54.9999 0L57.9999 2.99999L50.9999 10L48 7Z" fill="#E19500"/>
<path d="M58.9999 10L52.0301 2.99999L54.9999 0L61.9999 7L58.9999 10Z" fill="#E19500"/>
<path d="M56 7L62.9999 0L65.9999 2.99999L58.9999 10L56 7Z" fill="#E19500"/>
<path d="M66.9999 10L60.0301 2.99999L62.9999 0L69.9999 7L66.9999 10Z" fill="#E19500"/>
<path d="M64 7L70.9999 0L73.9999 2.99999L66.9999 10L64 7Z" fill="#E19500"/>
<path d="M74.9999 10L68.0301 2.99999L70.9999 0L77.9999 7L74.9999 10Z" fill="#E19500"/>
<path d="M72 7L78.9999 0L81.9999 2.99999L74.9999 10L72 7Z" fill="#E19500"/>
<path d="M82.9999 10L76.0301 2.99999L78.9999 0L85.9999 7L82.9999 10Z" fill="#E19500"/>
</svg>
